<?xml version="1.0" encoding="us-ascii" standalone="no"?><svg xmlns="http://www.w3.org/2000/svg" xmlns:xlink="http://www.w3.org/1999/xlink" contentStyleType="text/css" height="399px" preserveAspectRatio="none" style="width:512px;height:399px;background:#FFFFFF;" version="1.1" viewBox="0 0 512 399" width="512px" zoomAndPan="magnify"><defs/><g><rect fill="#FFFFFF" height="187.7969" style="stroke:#181818;stroke-width:1.0;" width="10" x="152.5" y="112.4297"/><rect fill="#FFFFFF" height="129.5313" style="stroke:#181818;stroke-width:1.0;" width="10" x="331.5" y="141.5625"/><rect fill="#FFFFFF" height="29.1328" style="stroke:#181818;stroke-width:1.0;" width="10" x="469.5" y="170.6953"/><line style="stroke:#181818;stroke-width:0.5;stroke-dasharray:5.0,5.0;" x1="23" x2="23" y1="81.2969" y2="318.2266"/><line style="stroke:#181818;stroke-width:0.5;stroke-dasharray:5.0,5.0;" x1="157" x2="157" y1="81.2969" y2="318.2266"/><line style="stroke:#181818;stroke-width:0.5;stroke-dasharray:5.0,5.0;" x1="336" x2="336" y1="81.2969" y2="318.2266"/><line style="stroke:#181818;stroke-width:0.5;stroke-dasharray:5.0,5.0;" x1="474.5" x2="474.5" y1="81.2969" y2="318.2266"/><text fill="#000000" font-family="sans-serif" font-size="14" lengthAdjust="spacing" textLength="31" x="5" y="77.9951">User</text><ellipse cx="23.5" cy="13.5" fill="#E2E2F0" rx="8" ry="8" style="stroke:#181818;stroke-width:0.5;"/><path d="M23.5,21.5 L23.5,48.5 M10.5,29.5 L36.5,29.5 M23.5,48.5 L10.5,63.5 M23.5,48.5 L36.5,63.5 " fill="none" style="stroke:#181818;stroke-width:0.5;"/><text fill="#000000" font-family="sans-serif" font-size="14" lengthAdjust="spacing" textLength="31" x="5" y="330.2217">User</text><ellipse cx="23.5" cy="342.0234" fill="#E2E2F0" rx="8" ry="8" style="stroke:#181818;stroke-width:0.5;"/><path d="M23.5,350.0234 L23.5,377.0234 M10.5,358.0234 L36.5,358.0234 M23.5,377.0234 L10.5,392.0234 M23.5,377.0234 L36.5,392.0234 " fill="none" style="stroke:#181818;stroke-width:0.5;"/><rect fill="#E2E2F0" height="30.2969" rx="2.5" ry="2.5" style="stroke:#181818;stroke-width:0.5;" width="57" x="129" y="50"/><text fill="#000000" font-family="sans-serif" font-size="14" lengthAdjust="spacing" textLength="43" x="136" y="69.9951">Client</text><rect fill="#E2E2F0" height="30.2969" rx="2.5" ry="2.5" style="stroke:#181818;stroke-width:0.5;" width="57" x="129" y="317.2266"/><text fill="#000000" font-family="sans-serif" font-size="14" lengthAdjust="spacing" textLength="43" x="136" y="337.2217">Client</text><rect fill="#E2E2F0" height="30.2969" rx="2.5" ry="2.5" style="stroke:#181818;stroke-width:0.5;" width="61" x="306" y="50"/><text fill="#000000" font-family="sans-serif" font-size="14" lengthAdjust="spacing" textLength="47" x="313" y="69.9951">Server</text><rect fill="#E2E2F0" height="30.2969" rx="2.5" ry="2.5" style="stroke:#181818;stroke-width:0.5;" width="61" x="306" y="317.2266"/><text fill="#000000" font-family="sans-serif" font-size="14" lengthAdjust="spacing" textLength="47" x="313" y="337.2217">Server</text><text fill="#000000" font-family="sans-serif" font-size="14" lengthAdjust="spacing" textLength="68" x="437.5" y="77.9951">Database</text><path d="M456.5,29 C456.5,19 474.5,19 474.5,19 C474.5,19 492.5,19 492.5,29 L492.5,55 C492.5,65 474.5,65 474.5,65 C474.5,65 456.5,65 456.5,55 L456.5,29 " fill="#E2E2F0" style="stroke:#181818;stroke-width:1.5;"/><path d="M456.5,29 C456.5,39 474.5,39 474.5,39 C474.5,39 492.5,39 492.5,29 " fill="none" style="stroke:#181818;stroke-width:1.5;"/><text fill="#000000" font-family="sans-serif" font-size="14" lengthAdjust="spacing" textLength="68" x="437.5" y="330.2217">Database</text><path d="M456.5,343.5234 C456.5,333.5234 474.5,333.5234 474.5,333.5234 C474.5,333.5234 492.5,333.5234 492.5,343.5234 L492.5,369.5234 C492.5,379.5234 474.5,379.5234 474.5,379.5234 C474.5,379.5234 456.5,379.5234 456.5,369.5234 L456.5,343.5234 " fill="#E2E2F0" style="stroke:#181818;stroke-width:1.5;"/><path d="M456.5,343.5234 C456.5,353.5234 474.5,353.5234 474.5,353.5234 C474.5,353.5234 492.5,353.5234 492.5,343.5234 " fill="none" style="stroke:#181818;stroke-width:1.5;"/><rect fill="#FFFFFF" height="187.7969" style="stroke:#181818;stroke-width:1.0;" width="10" x="152.5" y="112.4297"/><rect fill="#FFFFFF" height="129.5313" style="stroke:#181818;stroke-width:1.0;" width="10" x="331.5" y="141.5625"/><rect fill="#FFFFFF" height="29.1328" style="stroke:#181818;stroke-width:1.0;" width="10" x="469.5" y="170.6953"/><polygon fill="#181818" points="140.5,108.4297,150.5,112.4297,140.5,116.4297,144.5,112.4297" style="stroke:#181818;stroke-width:1.0;"/><line style="stroke:#181818;stroke-width:1.0;" x1="23.5" x2="146.5" y1="112.4297" y2="112.4297"/><text fill="#000000" font-family="sans-serif" font-size="13" lengthAdjust="spacing" textLength="110" x="30.5" y="107.3638">Enter Credentials</text><polygon fill="#181818" points="319.5,137.5625,329.5,141.5625,319.5,145.5625,323.5,141.5625" style="stroke:#181818;stroke-width:1.0;"/><line style="stroke:#181818;stroke-width:1.0;" x1="162.5" x2="325.5" y1="141.5625" y2="141.5625"/><text fill="#000000" font-family="sans-serif" font-size="13" lengthAdjust="spacing" textLength="150" x="169.5" y="136.4966">Request Authentication</text><polygon fill="#181818" points="457.5,166.6953,467.5,170.6953,457.5,174.6953,461.5,170.6953" style="stroke:#181818;stroke-width:1.0;"/><line style="stroke:#181818;stroke-width:1.0;" x1="341.5" x2="463.5" y1="170.6953" y2="170.6953"/><text fill="#000000" font-family="sans-serif" font-size="13" lengthAdjust="spacing" textLength="107" x="348.5" y="165.6294">Query User Data</text><polygon fill="#181818" points="352.5,195.8281,342.5,199.8281,352.5,203.8281,348.5,199.8281" style="stroke:#181818;stroke-width:1.0;"/><line style="stroke:#181818;stroke-width:1.0;stroke-dasharray:2.0,2.0;" x1="346.5" x2="473.5" y1="199.8281" y2="199.8281"/><text fill="#000000" font-family="sans-serif" font-size="13" lengthAdjust="spacing" textLength="64" x="358.5" y="194.7622">User Data</text><line style="stroke:#181818;stroke-width:1.0;" x1="341.5" x2="383.5" y1="228.9609" y2="228.9609"/><line style="stroke:#181818;stroke-width:1.0;" x1="383.5" x2="383.5" y1="228.9609" y2="241.9609"/><line style="stroke:#181818;stroke-width:1.0;" x1="342.5" x2="383.5" y1="241.9609" y2="241.9609"/><polygon fill="#181818" points="352.5,237.9609,342.5,241.9609,352.5,245.9609,348.5,241.9609" style="stroke:#181818;stroke-width:1.0;"/><text fill="#000000" font-family="sans-serif" font-size="13" lengthAdjust="spacing" textLength="114" x="348.5" y="223.895">Verify Credentials</text><polygon fill="#181818" points="173.5,267.0938,163.5,271.0938,173.5,275.0938,169.5,271.0938" style="stroke:#181818;stroke-width:1.0;"/><line style="stroke:#181818;stroke-width:1.0;stroke-dasharray:2.0,2.0;" x1="167.5" x2="335.5" y1="271.0938" y2="271.0938"/><text fill="#000000" font-family="sans-serif" font-size="13" lengthAdjust="spacing" textLength="137" x="179.5" y="266.0278">Authentication Result</text><polygon fill="#181818" points="34.5,296.2266,24.5,300.2266,34.5,304.2266,30.5,300.2266" style="stroke:#181818;stroke-width:1.0;"/><line style="stroke:#181818;stroke-width:1.0;stroke-dasharray:2.0,2.0;" x1="28.5" x2="156.5" y1="300.2266" y2="300.2266"/><text fill="#000000" font-family="sans-serif" font-size="13" lengthAdjust="spacing" textLength="91" x="40.5" y="295.1606">Display Result</text><!--SRC=[RP1H3i8W38RVEKKli0lmO68s3w16tokhaOIm2TsItLuO85lqgQNvl_xzGSM3Wvid9qPqh9KUqJAqHfFbtUXARWwg7XaVw0cwt0WHQMWE6P9miXm6hQC-F3KQBr2ndf6fx4qbCcchX0kz9_8CnubVaLB8Uh0LpEwfHB3OIpXFv9OrmZgipFV2qa2pSQn0Jxz8DIhwEpdzN7QnYcYJVNz_YEKdmrk77AJyG43Z8H8wxKU3onyYIJy0]--></g></svg>