<?xml version="1.0" encoding="us-ascii" standalone="no"?><svg xmlns="http://www.w3.org/2000/svg" xmlns:xlink="http://www.w3.org/1999/xlink" contentStyleType="text/css" height="399px" preserveAspectRatio="none" style="width:567px;height:399px;background:#FFFFFF;" version="1.1" viewBox="0 0 567 399" width="567px" zoomAndPan="magnify"><defs/><g><rect fill="#FFFFFF" height="187.7969" style="stroke:#181818;stroke-width:1.0;" width="10" x="205.5" y="112.4297"/><rect fill="#FFFFFF" height="129.5313" style="stroke:#181818;stroke-width:1.0;" width="10" x="368.5" y="141.5625"/><rect fill="#FFFFFF" height="29.1328" style="stroke:#181818;stroke-width:1.0;" width="10" x="524.5" y="170.6953"/><line style="stroke:#181818;stroke-width:0.5;stroke-dasharray:5.0,5.0;" x1="23" x2="23" y1="81.2969" y2="318.2266"/><line style="stroke:#181818;stroke-width:0.5;stroke-dasharray:5.0,5.0;" x1="210" x2="210" y1="81.2969" y2="318.2266"/><line style="stroke:#181818;stroke-width:0.5;stroke-dasharray:5.0,5.0;" x1="373" x2="373" y1="81.2969" y2="318.2266"/><line style="stroke:#181818;stroke-width:0.5;stroke-dasharray:5.0,5.0;" x1="529.5" x2="529.5" y1="81.2969" y2="318.2266"/><text fill="#000000" font-family="sans-serif" font-size="14" lengthAdjust="spacing" textLength="31" x="5" y="77.9951">User</text><ellipse cx="23.5" cy="13.5" fill="#E2E2F0" rx="8" ry="8" style="stroke:#181818;stroke-width:0.5;"/><path d="M23.5,21.5 L23.5,48.5 M10.5,29.5 L36.5,29.5 M23.5,48.5 L10.5,63.5 M23.5,48.5 L36.5,63.5 " fill="none" style="stroke:#181818;stroke-width:0.5;"/><text fill="#000000" font-family="sans-serif" font-size="14" lengthAdjust="spacing" textLength="31" x="5" y="330.2217">User</text><ellipse cx="23.5" cy="342.0234" fill="#E2E2F0" rx="8" ry="8" style="stroke:#181818;stroke-width:0.5;"/><path d="M23.5,350.0234 L23.5,377.0234 M10.5,358.0234 L36.5,358.0234 M23.5,377.0234 L10.5,392.0234 M23.5,377.0234 L36.5,392.0234 " fill="none" style="stroke:#181818;stroke-width:0.5;"/><rect fill="#E2E2F0" height="30.2969" rx="2.5" ry="2.5" style="stroke:#181818;stroke-width:0.5;" width="57" x="182" y="50"/><text fill="#000000" font-family="sans-serif" font-size="14" lengthAdjust="spacing" textLength="43" x="189" y="69.9951">Client</text><rect fill="#E2E2F0" height="30.2969" rx="2.5" ry="2.5" style="stroke:#181818;stroke-width:0.5;" width="57" x="182" y="317.2266"/><text fill="#000000" font-family="sans-serif" font-size="14" lengthAdjust="spacing" textLength="43" x="189" y="337.2217">Client</text><rect fill="#E2E2F0" height="30.2969" rx="2.5" ry="2.5" style="stroke:#181818;stroke-width:0.5;" width="61" x="343" y="50"/><text fill="#000000" font-family="sans-serif" font-size="14" lengthAdjust="spacing" textLength="47" x="350" y="69.9951">Server</text><rect fill="#E2E2F0" height="30.2969" rx="2.5" ry="2.5" style="stroke:#181818;stroke-width:0.5;" width="61" x="343" y="317.2266"/><text fill="#000000" font-family="sans-serif" font-size="14" lengthAdjust="spacing" textLength="47" x="350" y="337.2217">Server</text><text fill="#000000" font-family="sans-serif" font-size="14" lengthAdjust="spacing" textLength="68" x="492.5" y="77.9951">Database</text><path d="M511.5,29 C511.5,19 529.5,19 529.5,19 C529.5,19 547.5,19 547.5,29 L547.5,55 C547.5,65 529.5,65 529.5,65 C529.5,65 511.5,65 511.5,55 L511.5,29 " fill="#E2E2F0" style="stroke:#181818;stroke-width:1.5;"/><path d="M511.5,29 C511.5,39 529.5,39 529.5,39 C529.5,39 547.5,39 547.5,29 " fill="none" style="stroke:#181818;stroke-width:1.5;"/><text fill="#000000" font-family="sans-serif" font-size="14" lengthAdjust="spacing" textLength="68" x="492.5" y="330.2217">Database</text><path d="M511.5,343.5234 C511.5,333.5234 529.5,333.5234 529.5,333.5234 C529.5,333.5234 547.5,333.5234 547.5,343.5234 L547.5,369.5234 C547.5,379.5234 529.5,379.5234 529.5,379.5234 C529.5,379.5234 511.5,379.5234 511.5,369.5234 L511.5,343.5234 " fill="#E2E2F0" style="stroke:#181818;stroke-width:1.5;"/><path d="M511.5,343.5234 C511.5,353.5234 529.5,353.5234 529.5,353.5234 C529.5,353.5234 547.5,353.5234 547.5,343.5234 " fill="none" style="stroke:#181818;stroke-width:1.5;"/><rect fill="#FFFFFF" height="187.7969" style="stroke:#181818;stroke-width:1.0;" width="10" x="205.5" y="112.4297"/><rect fill="#FFFFFF" height="129.5313" style="stroke:#181818;stroke-width:1.0;" width="10" x="368.5" y="141.5625"/><rect fill="#FFFFFF" height="29.1328" style="stroke:#181818;stroke-width:1.0;" width="10" x="524.5" y="170.6953"/><polygon fill="#181818" points="193.5,108.4297,203.5,112.4297,193.5,116.4297,197.5,112.4297" style="stroke:#181818;stroke-width:1.0;"/><line style="stroke:#181818;stroke-width:1.0;" x1="23.5" x2="199.5" y1="112.4297" y2="112.4297"/><text fill="#000000" font-family="sans-serif" font-size="13" lengthAdjust="spacing" textLength="163" x="30.5" y="107.3638">Enter Registration Details</text><polygon fill="#181818" points="356.5,137.5625,366.5,141.5625,356.5,145.5625,360.5,141.5625" style="stroke:#181818;stroke-width:1.0;"/><line style="stroke:#181818;stroke-width:1.0;" x1="215.5" x2="362.5" y1="141.5625" y2="141.5625"/><text fill="#000000" font-family="sans-serif" font-size="13" lengthAdjust="spacing" textLength="134" x="222.5" y="136.4966">Request Registration</text><polygon fill="#181818" points="512.5,166.6953,522.5,170.6953,512.5,174.6953,516.5,170.6953" style="stroke:#181818;stroke-width:1.0;"/><line style="stroke:#181818;stroke-width:1.0;" x1="378.5" x2="518.5" y1="170.6953" y2="170.6953"/><text fill="#000000" font-family="sans-serif" font-size="13" lengthAdjust="spacing" textLength="112" x="385.5" y="165.6294">Check Availability</text><polygon fill="#181818" points="389.5,195.8281,379.5,199.8281,389.5,203.8281,385.5,199.8281" style="stroke:#181818;stroke-width:1.0;"/><line style="stroke:#181818;stroke-width:1.0;stroke-dasharray:2.0,2.0;" x1="383.5" x2="528.5" y1="199.8281" y2="199.8281"/><text fill="#000000" font-family="sans-serif" font-size="13" lengthAdjust="spacing" textLength="114" x="395.5" y="194.7622">Availability Status</text><line style="stroke:#181818;stroke-width:1.0;" x1="378.5" x2="420.5" y1="228.9609" y2="228.9609"/><line style="stroke:#181818;stroke-width:1.0;" x1="420.5" x2="420.5" y1="228.9609" y2="241.9609"/><line style="stroke:#181818;stroke-width:1.0;" x1="379.5" x2="420.5" y1="241.9609" y2="241.9609"/><polygon fill="#181818" points="389.5,237.9609,379.5,241.9609,389.5,245.9609,385.5,241.9609" style="stroke:#181818;stroke-width:1.0;"/><text fill="#000000" font-family="sans-serif" font-size="13" lengthAdjust="spacing" textLength="132" x="385.5" y="223.895">Create User Account</text><polygon fill="#181818" points="226.5,267.0938,216.5,271.0938,226.5,275.0938,222.5,271.0938" style="stroke:#181818;stroke-width:1.0;"/><line style="stroke:#181818;stroke-width:1.0;stroke-dasharray:2.0,2.0;" x1="220.5" x2="372.5" y1="271.0938" y2="271.0938"/><text fill="#000000" font-family="sans-serif" font-size="13" lengthAdjust="spacing" textLength="121" x="232.5" y="266.0278">Registration Result</text><polygon fill="#181818" points="34.5,296.2266,24.5,300.2266,34.5,304.2266,30.5,300.2266" style="stroke:#181818;stroke-width:1.0;"/><line style="stroke:#181818;stroke-width:1.0;stroke-dasharray:2.0,2.0;" x1="28.5" x2="209.5" y1="300.2266" y2="300.2266"/><text fill="#000000" font-family="sans-serif" font-size="13" lengthAdjust="spacing" textLength="91" x="40.5" y="295.1606">Display Result</text><!--SRC=[RP313OCm34NlcS8Bi027IWYw0AW3c62rLgD04uF4zarAKa3joPRrdx_zKSleuER9gGcTiEO9hK1jcAoSHXsv9QW65EpH4pIfKIhIK5mILCBLIXYqT6Sl3eL72mq9il4AjV22GjbWAn7UrfS1UytavOJlM3fYAn7BLvHGFqW_eLg23_PiMDOT-zwQ6oWEbaS6Ea6PlHhe5zvTCraxYefF09NMunnUogf38ASeMlApaQD1UYfd4S2ui8I6_MHm_KDiqZS0]--></g></svg>